<?xml version="1.0" encoding="UTF-8" standalone="no"?>
<!-- Created with Inkscape (http://www.inkscape.org/) -->

<svg
   xmlns:dc="http://purl.org/dc/elements/1.1/"
   xmlns:cc="http://creativecommons.org/ns#"
   xmlns:rdf="http://www.w3.org/1999/02/22-rdf-syntax-ns#"
   xmlns:svg="http://www.w3.org/2000/svg"
   xmlns="http://www.w3.org/2000/svg"
   xmlns:sodipodi="http://sodipodi.sourceforge.net/DTD/sodipodi-0.dtd"
   xmlns:inkscape="http://www.inkscape.org/namespaces/inkscape"
   width="210mm"
   height="297mm"
   viewBox="0 0 744.09448819 1052.3622047"
   id="svg2"
   version="1.1"
   inkscape:version="0.91 r13725"
   sodipodi:docname="Logo_eniri.svg"
   inkscape:export-filename="C:\Users\claude\Documents\Arduino\Programmes Arduino\eniri\logo eniri.png"
   inkscape:export-xdpi="59"
   inkscape:export-ydpi="59">
  <title
     id="title4169">logo Eniri</title>
  <defs
     id="defs4" />
  <sodipodi:namedview
     id="base"
     pagecolor="#ffffff"
     bordercolor="#666666"
     borderopacity="1.0"
     inkscape:pageopacity="0"
     inkscape:pageshadow="2"
     inkscape:zoom="0.98994949"
     inkscape:cx="385.82269"
     inkscape:cy="681.62441"
     inkscape:document-units="px"
     inkscape:current-layer="layer1"
     showgrid="false"
     inkscape:window-width="1920"
     inkscape:window-height="1137"
     inkscape:window-x="-8"
     inkscape:window-y="-8"
     inkscape:window-maximized="1"
     borderlayer="false" />
  <metadata
     id="metadata7">
    <rdf:RDF>
      <cc:Work
         rdf:about="">
        <dc:format>image/svg+xml</dc:format>
        <dc:type
           rdf:resource="http://purl.org/dc/dcmitype/StillImage" />
        <dc:title>logo Eniri</dc:title>
        <cc:license
           rdf:resource="http://artlibre.org/licence/lal" />
        <dc:creator>
          <cc:Agent>
            <dc:title>Boisgerault Claude</dc:title>
          </cc:Agent>
        </dc:creator>
        <dc:date>04/12/2016</dc:date>
      </cc:Work>
      <cc:License
         rdf:about="http://artlibre.org/licence/lal">
        <cc:permits
           rdf:resource="http://creativecommons.org/ns#Reproduction" />
        <cc:permits
           rdf:resource="http://creativecommons.org/ns#Distribution" />
        <cc:permits
           rdf:resource="http://creativecommons.org/ns#DerivativeWorks" />
        <cc:requires
           rdf:resource="http://creativecommons.org/ns#ShareAlike" />
        <cc:requires
           rdf:resource="http://creativecommons.org/ns#Notice" />
        <cc:requires
           rdf:resource="http://creativecommons.org/ns#Attribution" />
      </cc:License>
    </rdf:RDF>
  </metadata>
  <g
     inkscape:label="Calque 1"
     inkscape:groupmode="layer"
     id="layer1">
    <g
       id="g4163"
       inkscape:export-xdpi="59.709999"
       inkscape:export-ydpi="59.709999"
       transform="translate(-25.253814,-162.63456)">
      <rect
         y="350.30618"
         x="454.4519"
         height="165.66501"
         width="82.832512"
         id="rect4161"
         style="opacity:1;fill:#ffffff;fill-opacity:1;stroke:none;stroke-width:0.30000001;stroke-linecap:square;stroke-miterlimit:1;stroke-dasharray:none;stroke-dashoffset:0;stroke-opacity:1" />
      <path
         sodipodi:nodetypes="cccccc"
         inkscape:connector-curvature="0"
         id="rect4142-8"
         d="m 298.98583,354.32456 186.58913,0 37.70339,80.83444 -37.70339,80.83444 -186.58913,0 z"
         style="opacity:1;fill:#cfcfcf;fill-opacity:0.94117647;stroke:none;stroke-width:0.25209394;stroke-linecap:square;stroke-miterlimit:1;stroke-dasharray:none;stroke-dashoffset:0;stroke-opacity:1" />
      <path
         sodipodi:nodetypes="cccccc"
         inkscape:connector-curvature="0"
         id="rect4142"
         d="m 250.4925,352.30426 186.58913,0 37.70339,80.83444 -37.70339,80.83444 -186.58913,0 z"
         style="opacity:1;fill:#aeaeae;fill-opacity:0.94117647;stroke:none;stroke-width:0.25209394;stroke-linecap:square;stroke-miterlimit:1;stroke-dasharray:none;stroke-dashoffset:0;stroke-opacity:1" />
      <path
         id="rect4136"
         d="m 249.50781,338.18359 c -3.35775,0 -6.06054,2.70475 -6.06054,6.0625 l 0,179.2168 c 0,3.35775 2.70279,6.06055 6.06054,6.06055 l 289.0586,0 c 3.35775,0 6.06054,-2.7028 6.06054,-6.06055 l 0,-179.2168 c 0,-3.35775 -2.70279,-6.0625 -6.06054,-6.0625 l -289.0586,0 z m 12.90039,18.96094 55.21094,0 0,25.95313 -40.17773,0 0,34.01172 37.38476,0 0,25.8496 -37.38476,0 0,41.75391 41.59961,0 0,25.84961 -56.63282,0 0,-153.41797 z m 69.63672,0 14.62891,0 30.47461,102.45313 0,-102.45313 13.96875,0 0,153.41797 -15.08594,0 -30.01953,-100.04492 0,100.04492 -13.9668,0 0,-153.41797 z m 74.56446,0 15.0332,0 0,153.41797 -15.0332,0 0,-153.41797 z m 29.35742,0 31.64453,0 c 7.95755,0 13.73095,1.39683 17.32031,4.1875 3.62323,2.7209 6.51838,7.60396 8.68555,14.65039 2.16716,7.04644 3.25,15.10416 3.25,24.17383 0,11.5115 -1.64118,21.03551 -4.92578,28.57031 -3.28461,7.46504 -8.19512,12.17349 -14.73047,14.12696 3.25074,3.90693 5.92595,8.19672 8.02539,12.87109 2.1333,4.67437 4.99462,12.9781 8.58398,24.9082 l 9.0918,29.92969 -17.98047,0 -10.87109,-33.38281 c -3.86026,-11.93011 -6.49968,-19.43027 -7.92188,-22.5 -1.4222,-3.1395 -2.92997,-5.2685 -4.52148,-6.38477 -1.59151,-1.18603 -4.11445,-1.7793 -7.56836,-1.7793 l -3.04688,0 0,64.04688 -15.03515,0 0,-153.41797 z m 74.66601,0 15.03516,0 0,153.41797 -15.03516,0 0,-153.41797 z m -59.63086,25.95313 0,38.92968 11.12305,0 c 7.21259,0 11.71704,-0.62701 13.51172,-1.88281 1.79468,-1.2558 3.19899,-3.41855 4.21484,-6.48828 1.01586,-3.06973 1.52344,-6.90712 1.52344,-11.51172 0,-5.16273 -0.67677,-9.31362 -2.03125,-12.45312 -1.32061,-3.20927 -3.20061,-5.23312 -5.63867,-6.07032 -1.21903,-0.34883 -4.87556,-0.52343 -10.9707,-0.52343 l -11.73243,0 z"
         style="opacity:1;fill:#439afb;fill-opacity:1;stroke:#ffffff;stroke-width:0.30000001;stroke-linecap:square;stroke-miterlimit:1;stroke-dasharray:none;stroke-dashoffset:0;stroke-opacity:1"
         inkscape:connector-curvature="0" />
    </g>
  </g>
</svg>
